<?xml version="1.0" encoding="UTF-8" standalone="yes"?>
<!-- Created with qrencode 4.1.1 (https://fukuchi.org/works/qrencode/index.html) -->
<svg width="45mm" height="45mm" viewBox="0 0 45 45" preserveAspectRatio="none" version="1.1" xmlns="http://www.w3.org/2000/svg">
	<g id="QRcode">
		<path style="stroke:#000000" transform="translate(2,2.5)" d="M0,0h1M1,0h1M2,0h1M3,0h1M4,0h1M5,0h1M6,0h1M8,0h1M9,0h1M10,0h1M11,0h1M14,0h1M19,0h1M20,0h1M21,0h1M22,0h1M24,0h1M27,0h1M29,0h1M31,0h1M34,0h1M35,0h1M36,0h1M37,0h1M38,0h1M39,0h1M40,0h1M0,1h1M6,1h1M8,1h1M11,1h1M13,1h1M14,1h1M15,1h1M16,1h1M17,1h1M18,1h1M20,1h1M23,1h1M29,1h1M31,1h1M32,1h1M34,1h1M40,1h1M0,2h1M2,2h1M3,2h1M4,2h1M6,2h1M8,2h1M9,2h1M11,2h1M14,2h1M15,2h1M17,2h1M18,2h1M19,2h1M20,2h1M22,2h1M23,2h1M24,2h1M26,2h1M29,2h1M30,2h1M31,2h1M34,2h1M36,2h1M37,2h1M38,2h1M40,2h1M0,3h1M2,3h1M3,3h1M4,3h1M6,3h1M11,3h1M12,3h1M16,3h1M18,3h1M21,3h1M23,3h1M27,3h1M28,3h1M32,3h1M34,3h1M36,3h1M37,3h1M38,3h1M40,3h1M0,4h1M2,4h1M3,4h1M4,4h1M6,4h1M9,4h1M10,4h1M13,4h1M14,4h1M15,4h1M17,4h1M18,4h1M21,4h1M24,4h1M25,4h1M26,4h1M27,4h1M28,4h1M30,4h1M31,4h1M34,4h1M36,4h1M37,4h1M38,4h1M40,4h1M0,5h1M6,5h1M8,5h1M9,5h1M11,5h1M12,5h1M13,5h1M14,5h1M16,5h1M19,5h1M20,5h1M23,5h1M24,5h1M26,5h1M27,5h1M34,5h1M40,5h1M0,6h1M1,6h1M2,6h1M3,6h1M4,6h1M5,6h1M6,6h1M8,6h1M10,6h1M12,6h1M14,6h1M16,6h1M18,6h1M20,6h1M22,6h1M24,6h1M26,6h1M28,6h1M30,6h1M32,6h1M34,6h1M35,6h1M36,6h1M37,6h1M38,6h1M39,6h1M40,6h1M8,7h1M14,7h1M16,7h1M17,7h1M20,7h1M22,7h1M24,7h1M29,7h1M31,7h1M2,8h1M3,8h1M4,8h1M6,8h1M8,8h1M9,8h1M10,8h1M11,8h1M12,8h1M13,8h1M15,8h1M17,8h1M18,8h1M19,8h1M22,8h1M23,8h1M24,8h1M27,8h1M30,8h1M31,8h1M32,8h1M33,8h1M34,8h1M35,8h1M38,8h1M39,8h1M40,8h1M0,9h1M1,9h1M3,9h1M4,9h1M12,9h1M14,9h1M16,9h1M19,9h1M22,9h1M23,9h1M24,9h1M26,9h1M29,9h1M30,9h1M34,9h1M35,9h1M37,9h1M38,9h1M40,9h1M1,10h1M3,10h1M4,10h1M6,10h1M9,10h1M11,10h1M12,10h1M13,10h1M16,10h1M20,10h1M22,10h1M27,10h1M29,10h1M30,10h1M32,10h1M33,10h1M34,10h1M40,10h1M0,11h1M9,11h1M10,11h1M12,11h1M13,11h1M14,11h1M18,11h1M20,11h1M21,11h1M22,11h1M23,11h1M24,11h1M25,11h1M30,11h1M33,11h1M34,11h1M0,12h1M5,12h1M6,12h1M8,12h1M9,12h1M12,12h1M16,12h1M17,12h1M19,12h1M20,12h1M21,12h1M23,12h1M24,12h1M26,12h1M27,12h1M30,12h1M31,12h1M32,12h1M36,12h1M37,12h1M38,12h1M4,13h1M5,13h1M8,13h1M9,13h1M10,13h1M12,13h1M16,13h1M18,13h1M20,13h1M21,13h1M22,13h1M24,13h1M26,13h1M27,13h1M28,13h1M30,13h1M33,13h1M34,13h1M36,13h1M37,13h1M39,13h1M40,13h1M1,14h1M3,14h1M6,14h1M8,14h1M9,14h1M13,14h1M14,14h1M15,14h1M16,14h1M19,14h1M21,14h1M25,14h1M26,14h1M29,14h1M30,14h1M32,14h1M33,14h1M34,14h1M38,14h1M39,14h1M0,15h1M1,15h1M3,15h1M5,15h1M7,15h1M8,15h1M9,15h1M13,15h1M15,15h1M19,15h1M20,15h1M25,15h1M28,15h1M29,15h1M30,15h1M33,15h1M34,15h1M36,15h1M38,15h1M39,15h1M40,15h1M2,16h1M3,16h1M5,16h1M6,16h1M7,16h1M9,16h1M11,16h1M12,16h1M13,16h1M15,16h1M17,16h1M18,16h1M19,16h1M22,16h1M23,16h1M25,16h1M28,16h1M29,16h1M32,16h1M33,16h1M35,16h1M36,16h1M37,16h1M38,16h1M39,16h1M0,17h1M1,17h1M4,17h1M5,17h1M7,17h1M9,17h1M11,17h1M12,17h1M16,17h1M18,17h1M19,17h1M20,17h1M22,17h1M23,17h1M24,17h1M30,17h1M32,17h1M33,17h1M36,17h1M38,17h1M39,17h1M40,17h1M0,18h1M2,18h1M4,18h1M6,18h1M7,18h1M8,18h1M10,18h1M11,18h1M15,18h1M19,18h1M22,18h1M23,18h1M24,18h1M25,18h1M30,18h1M31,18h1M32,18h1M36,18h1M39,18h1M40,18h1M1,19h1M2,19h1M4,19h1M7,19h1M8,19h1M9,19h1M10,19h1M13,19h1M14,19h1M15,19h1M16,19h1M22,19h1M23,19h1M24,19h1M26,19h1M27,19h1M28,19h1M31,19h1M35,19h1M37,19h1M38,19h1M40,19h1M1,20h1M2,20h1M3,20h1M6,20h1M8,20h1M9,20h1M10,20h1M11,20h1M13,20h1M16,20h1M17,20h1M19,20h1M20,20h1M24,20h1M26,20h1M27,20h1M28,20h1M30,20h1M31,20h1M32,20h1M36,20h1M39,20h1M40,20h1M0,21h1M2,21h1M3,21h1M4,21h1M11,21h1M14,21h1M23,21h1M27,21h1M28,21h1M32,21h1M33,21h1M35,21h1M36,21h1M37,21h1M40,21h1M1,22h1M2,22h1M6,22h1M7,22h1M9,22h1M10,22h1M11,22h1M14,22h1M15,22h1M19,22h1M24,22h1M26,22h1M31,22h1M35,22h1M37,22h1M38,22h1M39,22h1M0,23h1M1,23h1M3,23h1M7,23h1M8,23h1M11,23h1M13,23h1M15,23h1M16,23h1M17,23h1M18,23h1M19,23h1M20,23h1M21,23h1M22,23h1M25,23h1M27,23h1M29,23h1M31,23h1M34,23h1M35,23h1M36,23h1M37,23h1M39,23h1M1,24h1M2,24h1M3,24h1M4,24h1M5,24h1M6,24h1M9,24h1M10,24h1M12,24h1M13,24h1M14,24h1M15,24h1M17,24h1M18,24h1M19,24h1M21,24h1M22,24h1M25,24h1M26,24h1M27,24h1M31,24h1M32,24h1M33,24h1M35,24h1M36,24h1M38,24h1M3,25h1M7,25h1M9,25h1M10,25h1M12,25h1M14,25h1M15,25h1M16,25h1M21,25h1M23,25h1M25,25h1M26,25h1M31,25h1M32,25h1M35,25h1M37,25h1M39,25h1M1,26h1M4,26h1M6,26h1M7,26h1M12,26h1M13,26h1M14,26h1M19,26h1M21,26h1M22,26h1M26,26h1M27,26h1M30,26h1M33,26h1M35,26h1M37,26h1M39,26h1M40,26h1M2,27h1M3,27h1M5,27h1M7,27h1M8,27h1M9,27h1M10,27h1M11,27h1M15,27h1M16,27h1M19,27h1M20,27h1M21,27h1M22,27h1M24,27h1M28,27h1M32,27h1M33,27h1M35,27h1M36,27h1M37,27h1M38,27h1M39,27h1M3,28h1M4,28h1M5,28h1M6,28h1M8,28h1M9,28h1M11,28h1M14,28h1M15,28h1M18,28h1M21,28h1M22,28h1M23,28h1M24,28h1M25,28h1M26,28h1M27,28h1M28,28h1M31,28h1M33,28h1M40,28h1M0,29h1M1,29h1M2,29h1M7,29h1M8,29h1M10,29h1M14,29h1M15,29h1M16,29h1M19,29h1M20,29h1M22,29h1M23,29h1M24,29h1M25,29h1M26,29h1M27,29h1M29,29h1M32,29h1M33,29h1M35,29h1M36,29h1M39,29h1M40,29h1M0,30h1M3,30h1M4,30h1M5,30h1M6,30h1M7,30h1M8,30h1M9,30h1M11,30h1M12,30h1M16,30h1M21,30h1M22,30h1M23,30h1M25,30h1M27,30h1M28,30h1M31,30h1M33,30h1M34,30h1M36,30h1M37,30h1M0,31h1M2,31h1M5,31h1M12,31h1M13,31h1M15,31h1M17,31h1M18,31h1M19,31h1M20,31h1M21,31h1M23,31h1M26,31h1M27,31h1M30,31h1M31,31h1M32,31h1M33,31h1M34,31h1M37,31h1M0,32h1M4,32h1M5,32h1M6,32h1M7,32h1M8,32h1M9,32h1M10,32h1M12,32h1M15,32h1M16,32h1M17,32h1M18,32h1M20,32h1M24,32h1M27,32h1M29,32h1M31,32h1M32,32h1M33,32h1M34,32h1M35,32h1M36,32h1M37,32h1M38,32h1M8,33h1M11,33h1M15,33h1M16,33h1M18,33h1M19,33h1M20,33h1M22,33h1M23,33h1M25,33h1M26,33h1M28,33h1M29,33h1M32,33h1M36,33h1M38,33h1M40,33h1M0,34h1M1,34h1M2,34h1M3,34h1M4,34h1M5,34h1M6,34h1M10,34h1M11,34h1M12,34h1M14,34h1M15,34h1M17,34h1M20,34h1M23,34h1M24,34h1M26,34h1M27,34h1M29,34h1M31,34h1M32,34h1M34,34h1M36,34h1M38,34h1M39,34h1M40,34h1M0,35h1M6,35h1M9,35h1M11,35h1M12,35h1M15,35h1M16,35h1M18,35h1M20,35h1M21,35h1M24,35h1M26,35h1M27,35h1M28,35h1M29,35h1M30,35h1M32,35h1M36,35h1M39,35h1M0,36h1M2,36h1M3,36h1M4,36h1M6,36h1M8,36h1M9,36h1M10,36h1M11,36h1M12,36h1M13,36h1M14,36h1M15,36h1M16,36h1M19,36h1M22,36h1M23,36h1M24,36h1M26,36h1M32,36h1M33,36h1M34,36h1M35,36h1M36,36h1M40,36h1M0,37h1M2,37h1M3,37h1M4,37h1M6,37h1M8,37h1M11,37h1M13,37h1M14,37h1M16,37h1M18,37h1M19,37h1M20,37h1M22,37h1M23,37h1M25,37h1M26,37h1M28,37h1M29,37h1M30,37h1M31,37h1M34,37h1M36,37h1M39,37h1M40,37h1M0,38h1M2,38h1M3,38h1M4,38h1M6,38h1M8,38h1M10,38h1M13,38h1M15,38h1M16,38h1M18,38h1M19,38h1M23,38h1M30,38h1M32,38h1M34,38h1M35,38h1M36,38h1M38,38h1M39,38h1M0,39h1M6,39h1M9,39h1M11,39h1M12,39h1M14,39h1M19,39h1M20,39h1M21,39h1M22,39h1M24,39h1M25,39h1M27,39h1M31,39h1M32,39h1M35,39h1M37,39h1M38,39h1M39,39h1M40,39h1M0,40h1M1,40h1M2,40h1M3,40h1M4,40h1M5,40h1M6,40h1M9,40h1M11,40h1M15,40h1M17,40h1M19,40h1M20,40h1M22,40h1M24,40h1M25,40h1M26,40h1M29,40h1M30,40h1M31,40h1M32,40h1M36,40h1M38,40h1M39,40h1"/>
	</g>
</svg>
